<?xml version="1.0" standalone="no"?><!DOCTYPE svg PUBLIC "-//W3C//DTD SVG 1.1//EN" "http://www.w3.org/Graphics/SVG/1.1/DTD/svg11.dtd"><svg t="1734084824168" class="icon" viewBox="0 0 1024 1024" version="1.1" xmlns="http://www.w3.org/2000/svg" p-id="27601" xmlns:xlink="http://www.w3.org/1999/xlink" width="200" height="200"><path d="M512 512.2m-351.8 0a351.8 351.8 0 1 0 703.6 0 351.8 351.8 0 1 0-703.6 0Z" fill="#999999" p-id="27602"></path><path d="M512 974c-123.4 0-239.2-48-326.6-135.2S50.2 635.6 50.2 512.2c0-123.4 48-239.2 135.2-326.6S388.6 50.4 512 50.4s239.2 48 326.6 135.2c87.2 87.2 135.2 203.2 135.2 326.6 0 123.4-48 239.2-135.2 326.6C751.2 926 635.2 974 512 974z m0-875.6C283.8 98.4 98.2 284 98.2 512.2 98.2 740.4 283.8 926 512 926s413.8-185.6 413.8-413.8C925.8 284 740.2 98.4 512 98.4z" fill="#555555" p-id="27603"></path></svg>