<?xml version="1.0" standalone="no"?><!DOCTYPE svg PUBLIC "-//W3C//DTD SVG 1.1//EN" "http://www.w3.org/Graphics/SVG/1.1/DTD/svg11.dtd"><svg t="1734084581537" class="icon" viewBox="0 0 1024 1024" version="1.1" xmlns="http://www.w3.org/2000/svg" p-id="5120" xmlns:xlink="http://www.w3.org/1999/xlink" width="200" height="200"><path d="M875.657 496.089c-45.807 55.847-152.22 45.52-191.22 2.65-59.23-65.099-152.929-56.384-190.625 10.684 11.205-35.996 37.875-70.217 74.188-94.023 48.62-31.896 108.769-42.07 164.901-27.918l1.886-7.613c-58.23-14.611-120.582-4.038-171.049 28.97-35.386 23.224-61.238 54.784-74.277 89.179 50.885-311.476 462.818-297.75 534.518-13.206-48.866-48.364-107.377-38.592-148.322 11.277zM813.25 371.853l-30.927 12.081-24.25-22.374 2.048 32.913-28.953 16.154 32.102 8.222 6.466 32.516 17.782-27.89 32.901 3.732-21.06-25.43 13.891-29.924z m-330.333 148.68a146.638 146.638 0 0 1 6.544-22.515c-1.303 7.999-2.55 16.048-3.373 24.478-1.085-0.576-2.097-1.359-3.171-1.964z m-11.702-7.24c3.793 2.686 7.735 4.991 11.703 7.24-0.213 1.024-0.51 2.04-0.693 3.07-3.9-3.317-7.682-6.695-11.01-10.31z m-66.407-99.158c-15.4-55.908-6.523-116.034 24.276-164.823l-6.645-4.223c-31.945 50.73-41.164 113.11-25.143 171.144 11.361 41.152 33.853 75.739 63.162 98.721-283.251-144.007-142.65-531.57 151.52-511.493-61.2 31.408-70.017 89.845-35.1 144.086 39.12 60.653-3.614 158.262-56.502 182.017-80.27 36.018-101.077 127.251-49.157 183.73-30.698-21.742-54.969-57.486-66.412-99.159z m39.401-188.495l6.398 32.428 17.878-27.862 32.874 3.82-21.06-25.458 13.856-29.893-30.805 12.049-24.305-22.375 2.01 32.914-28.887 16.121 32.041 8.256z m34.849 301.598c-6.429-3.646-12.687-7.651-18.6-12.284 6.83 3.468 13.962 6.77 21.262 9.968-0.84 0.813-1.796 1.53-2.662 2.316z m-10.31 8.638c3.636-2.708 7.02-5.627 10.31-8.638 0.904 0.516 1.706 1.243 2.623 1.735-4.251 2.64-8.576 4.894-12.933 6.903z m-115.559 32.55c-58.134-2.686-112.801-29.653-149.848-73.91l-6.059 4.963c38.546 46.014 95.17 73.997 155.537 76.805 42.26 1.942 81.757-8.417 112.589-28.55C240.53 769.78-84.56 517.378 25.3 245.219c11.008 67.711 64.08 94.214 126.595 77.758 69.988-18.28 149.96 52.39 156.27 109.87 9.555 87.411 90.567 135.294 160.582 103.03-30.306 22.553-72.068 34.584-115.559 32.55zM211.199 421.38l-30.837 12.02-24.322-22.346 1.992 32.918-28.886 16.12 32.057 8.23 6.477 32.414 17.832-27.796 32.824 3.855-21.055-25.429L211.2 421.38z m272.88 111.71c-5.823 5.286-11.964 10.264-18.671 14.644 5.806-5.734 11.59-11.574 17.25-17.939 0.526 1.064 0.924 2.215 1.421 3.294z m4.95 12.088c-1.427-4.162-3.144-8.151-4.95-12.089 0.76-0.687 1.7-1.207 2.444-1.917 1.17 4.72 1.942 9.38 2.506 14.006z m-4.525 119.893c-20.535 54.338-63.152 97.7-116.84 119.212l2.909 7.244c55.73-22.313 99.919-67.403 121.231-123.715 14.974-39.418 17.284-80.09 7.551-115.524 142.43 281.796-198.893 511.874-424.686 323.653 68.006 10.42 109.663-31.683 113.36-95.97 4.117-71.997 96.29-125.93 153.133-114.067 86.426 17.929 157.254-44.207 147.867-120.726 12.273 35.715 10.863 79.222-4.525 119.893z m-129.146 99.517l-30.866 12.027-24.308-22.381 2.013 32.946-28.886 16.087 32.073 8.262 6.496 32.42 17.748-27.828 32.97 3.883-21.127-25.397 13.887-30.02z m135.78-234.44c3.252 7.12 6.11 14.454 8.218 22.14-3.663-7.25-7.427-14.505-11.735-21.816 1.157-0.168 2.354-0.19 3.518-0.324z m13.29-0.979c-4.49 0.073-8.898 0.47-13.29 0.98-0.43-0.957-0.637-2.026-1.095-2.972 4.945 0.363 9.721 1.074 14.386 1.992zM694.86 718.054l7.859-0.491c-4.023-59.73-33.4-115.577-80.531-153.115-33.082-26.448-71.202-41.21-108.093-42.892 313.026-48.062 427.243 346.609 177.766 502.443 31.023-61.207 3.743-113.724-56.563-137.056-67.42-26.071-90.426-130.153-61.603-180.445 43.85-76.22 6.461-162.4-69.265-177.33 37.819-0.587 78.82 14.164 112.875 41.321 45.424 36.24 73.661 90.052 77.555 147.565z m-17.38 62.902l6.4 32.36 17.85-27.795 32.906 3.847-21.066-25.456 13.827-29.959-30.804 12.055-24.338-22.347 2.014 32.946-28.886 16.121 32.097 8.228zM490.584 522.367c7.749-0.867 15.59-1.169 23.51-0.81-8.003 1.23-16.053 2.55-24.32 4.367 0.208-1.192 0.57-2.372 0.81-3.557z m-4.1 0.357c0.298-0.039 0.6-0.044 0.896-0.085-0.067 0.17-0.161 0.313-0.229 0.481a7.18 7.18 0 0 1-0.666-0.396z m-0.933 3.983l-0.616-3.836c0.369-0.057 0.75-0.052 1.118-0.102-0.144 1.332-0.38 2.585-0.497 3.938h-0.005z m-0.018-0.006l0.018 0.006 0.006 0.017a0.048 0.048 0 0 1-0.024-0.023z m-0.128-0.117c0.044 0.035 0.085 0.079 0.13 0.123l-0.012-0.006-0.118-0.117z m0.123 0.13c-0.011-0.007-0.017-0.012-0.028-0.016l0.016 0.004 0.012 0.011z m0.023 0.01l-0.007 0.006-0.017-0.017c0.012 0 0.018 0.005 0.024 0.011z m-0.023 0.029l-0.168 0.083c0.062-0.039 0.123-0.068 0.185-0.107l-0.017 0.024z m0.017-0.006l-1.784 3.457c-0.326-0.168-0.627-0.392-0.957-0.566 0.9-1.007 1.829-1.864 2.724-2.886l0.017-0.005z m0.012-0.011l-0.012 0.01 0.007-0.01h0.005z m0 0.006z m0.839 3.841c-0.073 0.011-0.152 0.011-0.22 0.023l-0.62-3.865h0.007c0.367 1.292 0.552 2.562 0.833 3.842z m-0.84-3.847h0.007c0 0.006 0.004 0.01 0.01 0.017l-0.01-0.011c-0.006 0-0.006-0.006-0.006-0.006z m0-0.012h0.022l-0.015 0.012c-0.001-0.007-0.006-0.007-0.006-0.012z m0.263 0.029c-0.078-0.006-0.157-0.023-0.24-0.029l0.022-0.01 0.218 0.039z m-0.218-0.04z m-0.04-0.006l0.04 0.006c-0.018 0.006-0.035 0.006-0.044 0.011l0.005-0.017z m-0.004 0.017z m-0.006 0h0.006-0.006z m0.006 0.012v-0.012 0.012z m-0.006 0l-0.007-0.007c0.007 0 0.007-0.006 0.007-0.006v0.013z m0-0.012z m0 0z m0.006-0.017h0.006c0 0.006-0.006 0.011-0.011 0.017 0.005-0.006 0.005-0.01 0.005-0.017z m1.593-3.586c0.068 0.035 0.129 0.085 0.202 0.118l-1.79 3.468c0.458-1.259 1.09-2.36 1.588-3.586z m1.931 1.846c0.168 0.326 0.273 0.678 0.435 1.003-1.324 0.297-2.583 0.435-3.915 0.75l3.48-1.753z m0.693 0.957c-0.023 0.14-0.073 0.28-0.094 0.42-0.052-0.123-0.102-0.251-0.163-0.374 0.089-0.017 0.168-0.03 0.257-0.046z m0.263 1.253c-0.18-0.01-0.352-0.033-0.537-0.05 0.044-0.262 0.133-0.52 0.179-0.784 0.117 0.281 0.229 0.566 0.358 0.834z m-0.589 0.163l-3.63-0.587c1.26 0.061 2.457 0.25 3.683 0.374-0.013 0.067-0.041 0.14-0.053 0.213z m-1.112 2.249c-0.252 0.251-0.555 0.458-0.81 0.71-0.7-1.186-1.238-2.355-1.954-3.546l2.764 2.836z m-0.716 0.883c-0.112 0.017-0.218 0.017-0.33 0.034 0.078-0.072 0.162-0.135 0.236-0.207 0.032 0.055 0.061 0.116 0.094 0.173z m-1.097 0.7a10.99 10.99 0 0 1-0.128-0.589c0.29-0.044 0.598-0.039 0.895-0.078-0.257 0.225-0.52 0.436-0.767 0.667z m-3.864-1.377c-0.05-0.107-0.09-0.225-0.14-0.33 0.095 0.061 0.19 0.123 0.285 0.173-0.044 0.056-0.095 0.102-0.145 0.157z m-0.979-0.822c0.168-0.1 0.335-0.19 0.503-0.291 0.123 0.258 0.213 0.537 0.337 0.789-0.28-0.168-0.555-0.347-0.84-0.498z m0.414-0.492l3.266-1.645c-1.046 0.682-2.119 1.226-3.177 1.846-0.033-0.061-0.056-0.14-0.09-0.2z m-0.437-2.405c0.061-0.359 0.185-0.71 0.247-1.069 1.218 0.555 2.344 1.163 3.596 1.69l-3.843-0.621z m0.062-1.154c0.08-0.077 0.168-0.144 0.252-0.218-0.017 0.1-0.05 0.202-0.067 0.308-0.068-0.027-0.123-0.061-0.185-0.09z m0.504-1.32c0.173 0.147 0.312 0.308 0.485 0.455-0.23 0.229-0.491 0.434-0.738 0.642 0.062-0.37 0.18-0.727 0.253-1.097z m0.609 0.348l2.573 2.628c-1.007-0.782-1.74-1.71-2.696-2.521 0.04-0.035 0.084-0.068 0.123-0.107z m3.256-1.454c0.139 0.068 0.268 0.15 0.397 0.23-0.14 0.022-0.285 0.022-0.43 0.043 0.01-0.095 0.027-0.185 0.033-0.273z m7.724-13.073c-1.337 4.296-2.343 8.61-3.228 12.944-1.062 0.118-2.148 0.13-3.205 0.273 1.896-4.648 4.08-9.021 6.433-13.217z m0 0" fill="#FFFFFF" p-id="5121"></path></svg>